<svg id="Layer_1" data-name="Layer 1" xmlns="http://www.w3.org/2000/svg" viewBox="0 0 479 375"><defs><style>.cls-1{fill:#2f8dc4;}.cls-2{fill:#005695;}.cls-3{fill:#ed1c24;}.cls-4{fill:#231f20;}</style></defs><title>Artboard 1</title><polygon class="cls-1" points="252.18 126.85 287.69 106.39 287.69 106.37 239.86 78.7 191.62 106.26 191.62 161.74 227.49 141.06 227.49 126.84 239.85 119.77 252.11 126.87 252.18 126.85"/><polygon class="cls-2" points="252.18 147.77 252.18 182.6 287.67 161.71 287.69 106.39 252.18 126.85 252.18 147.77"/><polygon class="cls-3" points="191.6 161.74 191.6 182.88 191.6 218.02 191.62 218.01 227.47 196.92 227.49 141.06 191.62 161.74 191.6 161.74"/><path class="cls-4" d="M125.37,262.09c0,3.2-1,5.64-3,7.33s-4.83,2.54-8.51,2.54h-2.7v10.55h-6.29V252.84h9.47q5.4,0,8.21,2.32C124.44,256.71,125.37,259,125.37,262.09Zm-14.2,4.71h2.07a6.92,6.92,0,0,0,4.34-1.14,4,4,0,0,0,1.44-3.34,4.09,4.09,0,0,0-1.21-3.27A5.65,5.65,0,0,0,114,258h-2.86Z"/><path class="cls-4" d="M157.9,267.63q0,7.37-3.65,11.33t-10.47,4q-6.83,0-10.47-4t-3.65-11.37c0-4.93,1.22-8.71,3.66-11.31s5.94-3.91,10.5-3.91,8.05,1.32,10.46,3.94S157.9,262.71,157.9,267.63Zm-21.65,0c0,3.32.63,5.81,1.89,7.49a6.6,6.6,0,0,0,5.64,2.52q7.53,0,7.53-10t-7.49-10a6.65,6.65,0,0,0-5.66,2.52Q136.26,262.66,136.25,267.63Z"/><path class="cls-4" d="M176.65,257.65a6.39,6.39,0,0,0-5.49,2.67q-1.95,2.67-1.95,7.43,0,9.93,7.44,9.93a23.53,23.53,0,0,0,7.57-1.56v5.27a20.88,20.88,0,0,1-8.15,1.52q-6.48,0-9.91-3.92t-3.43-11.28a18.43,18.43,0,0,1,1.69-8.1,12.14,12.14,0,0,1,4.84-5.34,14.28,14.28,0,0,1,7.39-1.86,20,20,0,0,1,8.69,2.09l-2,5.12a32,32,0,0,0-3.35-1.38A10,10,0,0,0,176.65,257.65Z"/><path class="cls-4" d="M214,282.51h-6.27V258.08H196.83v24.43h-6.29V252.84H214Z"/><path class="cls-4" d="M239.67,282.51l-2.16-7.06H226.7l-2.15,7.06h-6.78l10.47-29.79h7.69l10.51,29.79ZM236,270.17q-3-9.6-3.36-10.86c-.25-.84-.43-1.5-.53-2q-.68,2.61-3.84,12.85Z"/><path class="cls-4" d="M270.67,262.09q0,4.8-3,7.33c-2,1.69-4.83,2.54-8.51,2.54h-2.7v10.55h-6.29V252.84h9.47q5.4,0,8.21,2.32C269.74,256.71,270.67,259,270.67,262.09Zm-14.2,4.71h2.07a6.92,6.92,0,0,0,4.34-1.14,4,4,0,0,0,1.44-3.34,4.09,4.09,0,0,0-1.21-3.27,5.65,5.65,0,0,0-3.78-1.06h-2.86Z"/><path class="cls-4" d="M287.72,282.51h-6.29V258.08h-8.06v-5.24h22.41v5.24h-8.06Z"/><path class="cls-4" d="M324.65,282.51h-6.27V269.7H306.63v12.81h-6.29V252.84h6.29v11.63h11.75V252.84h6.27Z"/><path class="cls-4" d="M349.23,282.51H332.14V252.84h17.09V258h-10.8v6.52h10.05v5.15H338.43v7.65h10.8Z"/><path class="cls-4" d="M375.91,262.09q0,4.8-3,7.33c-2,1.69-4.83,2.54-8.51,2.54h-2.7v10.55h-6.29V252.84h9.47q5.4,0,8.21,2.32C375,256.71,375.91,259,375.91,262.09Zm-14.2,4.71h2.07a6.92,6.92,0,0,0,4.34-1.14,4,4,0,0,0,1.44-3.34,4.09,4.09,0,0,0-1.21-3.27,5.65,5.65,0,0,0-3.78-1.06h-2.86Z"/></svg>